<?xml version="1.0" encoding="UTF-8"?>
<svg xmlns="http://www.w3.org/2000/svg" xmlns:xlink="http://www.w3.org/1999/xlink" width="230pt" height="110pt" viewBox="0 0 230 110" version="1.1">
<g id="surface1">
<path style="fill-rule:nonzero;fill:rgb(100%,80.9%,85.8%);fill-opacity:1;stroke-width:0.3;stroke-linecap:butt;stroke-linejoin:miter;stroke:rgb(0%,0%,0%);stroke-opacity:1;stroke-miterlimit:10;" d="M 202.5 35 L 195 35 L 195 40 Z M 202.5 35 "/>
<path style="fill-rule:nonzero;fill:rgb(100%,80.9%,85.8%);fill-opacity:1;stroke-width:0.3;stroke-linecap:butt;stroke-linejoin:miter;stroke:rgb(0%,0%,0%);stroke-opacity:1;stroke-miterlimit:10;" d="M 210 35 L 202.5 35 L 210 45 Z M 210 35 "/>
<path style="fill-rule:nonzero;fill:rgb(100%,100%,80%);fill-opacity:1;stroke-width:0.3;stroke-linecap:butt;stroke-linejoin:miter;stroke:rgb(0%,0%,0%);stroke-opacity:1;stroke-miterlimit:10;" d="M 202.5 35 L 195 40 L 210 45 Z M 202.5 35 "/>
<path style="fill-rule:nonzero;fill:rgb(100%,80.9%,85.8%);fill-opacity:1;stroke-width:0.3;stroke-linecap:butt;stroke-linejoin:miter;stroke:rgb(0%,0%,0%);stroke-opacity:1;stroke-miterlimit:10;" d="M 195 40 L 200 56 L 210 45 Z M 195 40 "/>
<path style="fill-rule:nonzero;fill:rgb(100%,100%,80%);fill-opacity:1;stroke-width:0.3;stroke-linecap:butt;stroke-linejoin:miter;stroke:rgb(0%,0%,0%);stroke-opacity:1;stroke-miterlimit:10;" d="M 195 40 L 190 58 L 200 56 Z M 195 40 "/>
<path style="fill-rule:nonzero;fill:rgb(100%,80.9%,85.8%);fill-opacity:1;stroke-width:0.3;stroke-linecap:butt;stroke-linejoin:miter;stroke:rgb(0%,0%,0%);stroke-opacity:1;stroke-miterlimit:10;" d="M 195 40 L 180 40 L 190 58 Z M 195 40 "/>
<path style="fill-rule:nonzero;fill:rgb(100%,100%,80%);fill-opacity:1;stroke-width:0.3;stroke-linecap:butt;stroke-linejoin:miter;stroke:rgb(0%,0%,0%);stroke-opacity:1;stroke-miterlimit:10;" d="M 180 40 L 170 61 L 190 58 Z M 180 40 "/>
<path style="fill-rule:nonzero;fill:rgb(100%,80.9%,85.8%);fill-opacity:1;stroke-width:0.3;stroke-linecap:butt;stroke-linejoin:miter;stroke:rgb(0%,0%,0%);stroke-opacity:1;stroke-miterlimit:10;" d="M 180 40 L 155 40 L 170 61 Z M 180 40 "/>
<path style="fill-rule:nonzero;fill:rgb(100%,100%,80%);fill-opacity:1;stroke-width:0.3;stroke-linecap:butt;stroke-linejoin:miter;stroke:rgb(0%,0%,0%);stroke-opacity:1;stroke-miterlimit:10;" d="M 155 40 L 150 65 L 170 61 Z M 155 40 "/>
<path style="fill-rule:nonzero;fill:rgb(100%,80.9%,85.8%);fill-opacity:1;stroke-width:0.3;stroke-linecap:butt;stroke-linejoin:miter;stroke:rgb(0%,0%,0%);stroke-opacity:1;stroke-miterlimit:10;" d="M 155 40 L 130 40 L 150 65 Z M 155 40 "/>
<path style="fill-rule:nonzero;fill:rgb(100%,100%,80%);fill-opacity:1;stroke-width:0.3;stroke-linecap:butt;stroke-linejoin:miter;stroke:rgb(0%,0%,0%);stroke-opacity:1;stroke-miterlimit:10;" d="M 130 40 L 130 69 L 150 65 Z M 130 40 "/>
<path style="fill-rule:nonzero;fill:rgb(100%,80.9%,85.8%);fill-opacity:1;stroke-width:0.3;stroke-linecap:butt;stroke-linejoin:miter;stroke:rgb(0%,0%,0%);stroke-opacity:1;stroke-miterlimit:10;" d="M 130 40 L 115 55 L 130 69 Z M 130 40 "/>
<path style="fill-rule:nonzero;fill:rgb(100%,100%,80%);fill-opacity:1;stroke-width:0.3;stroke-linecap:butt;stroke-linejoin:miter;stroke:rgb(0%,0%,0%);stroke-opacity:1;stroke-miterlimit:10;" d="M 130 40 L 110 35 L 115 55 Z M 130 40 "/>
<path style="fill-rule:nonzero;fill:rgb(100%,100%,80%);fill-opacity:1;stroke-width:0.3;stroke-linecap:butt;stroke-linejoin:miter;stroke:rgb(0%,0%,0%);stroke-opacity:1;stroke-miterlimit:10;" d="M 115 55 L 105 75 L 130 69 Z M 115 55 "/>
<path style="fill-rule:nonzero;fill:rgb(100%,80.9%,85.8%);fill-opacity:1;stroke-width:0.3;stroke-linecap:butt;stroke-linejoin:miter;stroke:rgb(0%,0%,0%);stroke-opacity:1;stroke-miterlimit:10;" d="M 110 35 L 95 47 L 115 55 Z M 110 35 "/>
<path style="fill-rule:nonzero;fill:rgb(100%,100%,80%);fill-opacity:1;stroke-width:0.3;stroke-linecap:butt;stroke-linejoin:miter;stroke:rgb(0%,0%,0%);stroke-opacity:1;stroke-miterlimit:10;" d="M 95 47 L 95 65 L 115 55 Z M 95 47 "/>
<path style="fill-rule:nonzero;fill:rgb(100%,80.9%,85.8%);fill-opacity:1;stroke-width:0.3;stroke-linecap:butt;stroke-linejoin:miter;stroke:rgb(0%,0%,0%);stroke-opacity:1;stroke-miterlimit:10;" d="M 115 55 L 95 65 L 105 75 Z M 115 55 "/>
<path style="fill-rule:nonzero;fill:rgb(100%,80.9%,85.8%);fill-opacity:1;stroke-width:0.3;stroke-linecap:butt;stroke-linejoin:miter;stroke:rgb(0%,0%,0%);stroke-opacity:1;stroke-miterlimit:10;" d="M 95 47 L 75 58 L 95 65 Z M 95 47 "/>
<path style="fill-rule:nonzero;fill:rgb(100%,100%,80%);fill-opacity:1;stroke-width:0.3;stroke-linecap:butt;stroke-linejoin:miter;stroke:rgb(0%,0%,0%);stroke-opacity:1;stroke-miterlimit:10;" d="M 95 65 L 85 82 L 105 75 Z M 95 65 "/>
<path style="fill-rule:nonzero;fill:rgb(60%,91.6%,100%);fill-opacity:1;stroke-width:0.3;stroke-linecap:butt;stroke-linejoin:miter;stroke:rgb(0%,0%,0%);stroke-opacity:1;stroke-miterlimit:10;" d="M 75 58 L 85 82 L 95 65 Z M 75 58 "/>
<path style="fill-rule:nonzero;fill:rgb(100%,80.9%,85.8%);fill-opacity:1;stroke-width:0.3;stroke-linecap:butt;stroke-linejoin:miter;stroke:rgb(0%,0%,0%);stroke-opacity:1;stroke-miterlimit:10;" d="M 75 58 L 65 80 L 85 82 Z M 75 58 "/>
<path style="fill-rule:nonzero;fill:rgb(100%,100%,80%);fill-opacity:1;stroke-width:0.3;stroke-linecap:butt;stroke-linejoin:miter;stroke:rgb(0%,0%,0%);stroke-opacity:1;stroke-miterlimit:10;" d="M 85 82 L 65 80 L 55 94 Z M 85 82 "/>
<path style="fill-rule:nonzero;fill:rgb(100%,100%,80%);fill-opacity:1;stroke-width:0.3;stroke-linecap:butt;stroke-linejoin:miter;stroke:rgb(0%,0%,0%);stroke-opacity:1;stroke-miterlimit:10;" d="M 75 58 L 55 70 L 65 80 Z M 75 58 "/>
<path style="fill-rule:nonzero;fill:rgb(60%,91.6%,100%);fill-opacity:1;stroke-width:0.3;stroke-linecap:butt;stroke-linejoin:miter;stroke:rgb(0%,0%,0%);stroke-opacity:1;stroke-miterlimit:10;" d="M 55 70 L 50 80 L 65 80 Z M 55 70 "/>
<path style="fill-rule:nonzero;fill:rgb(100%,80.9%,85.8%);fill-opacity:1;stroke-width:0.3;stroke-linecap:butt;stroke-linejoin:miter;stroke:rgb(0%,0%,0%);stroke-opacity:1;stroke-miterlimit:10;" d="M 65 80 L 50 80 L 55 94 Z M 65 80 "/>
<path style="fill-rule:nonzero;fill:rgb(100%,100%,80%);fill-opacity:1;stroke-width:0.3;stroke-linecap:butt;stroke-linejoin:miter;stroke:rgb(0%,0%,0%);stroke-opacity:1;stroke-miterlimit:10;" d="M 50 60 L 40 62 L 55 70 Z M 50 60 "/>
<path style="fill-rule:nonzero;fill:rgb(100%,100%,80%);fill-opacity:1;stroke-width:0.3;stroke-linecap:butt;stroke-linejoin:miter;stroke:rgb(0%,0%,0%);stroke-opacity:1;stroke-miterlimit:10;" d="M 40 62 L 32 64 L 35 75 Z M 40 62 "/>
<path style="fill-rule:nonzero;fill:rgb(100%,80.9%,85.8%);fill-opacity:1;stroke-width:0.3;stroke-linecap:butt;stroke-linejoin:miter;stroke:rgb(0%,0%,0%);stroke-opacity:1;stroke-miterlimit:10;" d="M 40 62 L 35 75 L 55 70 Z M 40 62 "/>
<path style="fill-rule:nonzero;fill:rgb(100%,80.9%,85.8%);fill-opacity:1;stroke-width:0.3;stroke-linecap:butt;stroke-linejoin:miter;stroke:rgb(0%,0%,0%);stroke-opacity:1;stroke-miterlimit:10;" d="M 50 80 L 35 75 L 40 90 Z M 50 80 "/>
<path style="fill-rule:nonzero;fill:rgb(100%,100%,80%);fill-opacity:1;stroke-width:0.3;stroke-linecap:butt;stroke-linejoin:miter;stroke:rgb(0%,0%,0%);stroke-opacity:1;stroke-miterlimit:10;" d="M 50 80 L 40 90 L 55 94 Z M 50 80 "/>
</g>
</svg>
